REM DIRINDEX 1\5,1\2\6,1\2\7,1\3\8,1\3\9,1\4\10,1\4\11,1\4\12
REM DIRNAME folder01,folder02,folder03,folder04,folder05,folder06,folder07,folder08,folder09,folder10,folder11,folder12
TITLE ""
FILE "EJE_DB3000_5th_3B_19.mp3" MP3
  TRACK 01 AUDIO
    TITLE "0:"
    INDEX 01 00:00:00
  TRACK 02 AUDIO
    TITLE "10:cjc026_08898"
    INDEX 01 00:00:05
  TRACK 03 AUDIO
    TITLE "0:"
    INDEX 01 00:01:07
  TRACK 04 AUDIO
    TITLE "11:cjc026_08899"
    INDEX 01 00:01:34
  TRACK 05 AUDIO
    TITLE "0:"
    INDEX 01 00:02:22
  TRACK 06 AUDIO
    TITLE "12:cjc026_08900"
    INDEX 01 00:02:47
  TRACK 07 AUDIO
    TITLE "0:"
    INDEX 01 00:03:47
  TRACK 08 AUDIO
    TITLE "10:cjc026_08901"
    INDEX 01 00:04:01
  TRACK 09 AUDIO
    TITLE "0:"
    INDEX 01 00:04:70
  TRACK 10 AUDIO
    TITLE "11:cjc026_08902"
    INDEX 01 00:05:24
  TRACK 11 AUDIO
    TITLE "0:"
    INDEX 01 00:06:28
  TRACK 12 AUDIO
    TITLE "12:cjc026_08903"
    INDEX 01 00:06:59
  TRACK 13 AUDIO
    TITLE "0:"
    INDEX 01 00:07:52
  TRACK 14 AUDIO
    TITLE "10:cjc026_08904"
    INDEX 01 00:08:05
  TRACK 15 AUDIO
    TITLE "0:"
    INDEX 01 00:08:73
  TRACK 16 AUDIO
    TITLE "11:cjc026_08905"
    INDEX 01 00:09:26
  TRACK 17 AUDIO
    TITLE "0:"
    INDEX 01 00:10:12
  TRACK 18 AUDIO
    TITLE "12:cjc026_08906"
    INDEX 01 00:10:37
  TRACK 19 AUDIO
    TITLE "0:"
    INDEX 01 00:11:31
  TRACK 20 AUDIO
    TITLE "10:cjc026_08907"
    INDEX 01 00:11:58
  TRACK 21 AUDIO
    TITLE "0:"
    INDEX 01 00:12:48
  TRACK 22 AUDIO
    TITLE "11:cjc026_08908"
    INDEX 01 00:12:73
  TRACK 23 AUDIO
    TITLE "0:"
    INDEX 01 00:13:57
  TRACK 24 AUDIO
    TITLE "12:cjc026_08909"
    INDEX 01 00:14:07
  TRACK 25 AUDIO
    TITLE "0:"
    INDEX 01 00:14:74
  TRACK 26 AUDIO
    TITLE "10:cjc026_08910"
    INDEX 01 00:15:25
  TRACK 27 AUDIO
    TITLE "0:"
    INDEX 01 00:16:16
  TRACK 28 AUDIO
    TITLE "11:cjc026_08911"
    INDEX 01 00:16:42
  TRACK 29 AUDIO
    TITLE "0:"
    INDEX 01 00:17:41
  TRACK 30 AUDIO
    TITLE "12:cjc026_08912"
    INDEX 01 00:17:67
  TRACK 31 AUDIO
    TITLE "0:"
    INDEX 01 00:18:58
  TRACK 32 AUDIO
    TITLE "10:cjc026_08913"
    INDEX 01 00:19:09
  TRACK 33 AUDIO
    TITLE "0:"
    INDEX 01 00:20:00
  TRACK 34 AUDIO
    TITLE "11:cjc026_08914"
    INDEX 01 00:20:30
  TRACK 35 AUDIO
    TITLE "0:"
    INDEX 01 00:21:27
  TRACK 36 AUDIO
    TITLE "12:cjc026_08915"
    INDEX 01 00:21:53
  TRACK 37 AUDIO
    TITLE "0:"
    INDEX 01 00:22:46
  TRACK 38 AUDIO
    TITLE "10:cjc026_08916"
    INDEX 01 00:22:72
  TRACK 39 AUDIO
    TITLE "0:"
    INDEX 01 00:23:65
  TRACK 40 AUDIO
    TITLE "11:cjc026_08917"
    INDEX 01 00:24:18
  TRACK 41 AUDIO
    TITLE "0:"
    INDEX 01 00:25:13
  TRACK 42 AUDIO
    TITLE "12:cjc026_08918"
    INDEX 01 00:25:39
  TRACK 43 AUDIO
    TITLE "0:"
    INDEX 01 00:26:30
  TRACK 44 AUDIO
    TITLE "10:cjc026_08919"
    INDEX 01 00:26:58
  TRACK 45 AUDIO
    TITLE "0:"
    INDEX 01 00:27:53
  TRACK 46 AUDIO
    TITLE "11:cjc026_08920"
    INDEX 01 00:28:06
  TRACK 47 AUDIO
    TITLE "0:"
    INDEX 01 00:29:17
  TRACK 48 AUDIO
    TITLE "12:cjc026_08921"
    INDEX 01 00:29:42
  TRACK 49 AUDIO
    TITLE "0:"
    INDEX 01 00:30:36
  TRACK 50 AUDIO
    TITLE "10:cjc026_08922"
    INDEX 01 00:30:63
  TRACK 51 AUDIO
    TITLE "0:"
    INDEX 01 00:31:59
  TRACK 52 AUDIO
    TITLE "11:cjc026_08923"
    INDEX 01 00:32:11
  TRACK 53 AUDIO
    TITLE "0:"
    INDEX 01 00:33:17
  TRACK 54 AUDIO
    TITLE "12:cjc026_08924"
    INDEX 01 00:33:42
  TRACK 55 AUDIO
    TITLE "0:"
    INDEX 01 00:34:38
  TRACK 56 AUDIO
    TITLE "10:cjc026_08925"
    INDEX 01 00:34:65
  TRACK 57 AUDIO
    TITLE "0:"
    INDEX 01 00:35:61
  TRACK 58 AUDIO
    TITLE "11:cjc026_08926"
    INDEX 01 00:36:13
  TRACK 59 AUDIO
    TITLE "0:"
    INDEX 01 00:36:74
  TRACK 60 AUDIO
    TITLE "12:cjc026_08927"
    INDEX 01 00:37:26
  TRACK 61 AUDIO
    TITLE "0:"
    INDEX 01 00:38:22
  TRACK 62 AUDIO
    TITLE "10:cjc026_08928"
    INDEX 01 00:38:49
  TRACK 63 AUDIO
    TITLE "0:"
    INDEX 01 00:39:49
  TRACK 64 AUDIO
    TITLE "11:cjc026_08929"
    INDEX 01 00:40:01
  TRACK 65 AUDIO
    TITLE "0:"
    INDEX 01 00:41:04
  TRACK 66 AUDIO
    TITLE "12:cjc026_08930"
    INDEX 01 00:41:32
  TRACK 67 AUDIO
    TITLE "0:"
    INDEX 01 00:42:31
